<?xml version="1.0" encoding="UTF-8"?>
<svg id="_Слой_1" data-name="Слой 1" xmlns="http://www.w3.org/2000/svg" viewBox="0 0 141.84 60.59">
  <defs>
    <style>
      .cls-1 {
        fill: none;
        stroke: #f08023;
        stroke-miterlimit: 10;
        stroke-width: 10px;
      }

      .cls-2 {
        fill: #f08023;
      }
    </style>
  </defs>
  <g>
    <path class="cls-2" d="M17.21,30.86c-.31-7.1,5.2-13.11,12.31-13.41,7.11-.31,13.12,5.2,13.43,12.3,.31,7.1-5.2,13.11-12.31,13.41-7.11,.31-13.12-5.2-13.43-12.3"/>
    <g>
      <path class="cls-1" d="M40.58,53.34c-2.85,1.3-6,2.09-9.32,2.23-13.89,.61-25.64-10.22-26.24-24.18C4.42,17.44,15.19,5.63,29.08,5.02c13.89-.61,25.64,10.22,26.24,24.17,.17,3.98-2.62,12.63-4.1,16.05"/>
      <path class="cls-2" d="M38.03,48.79s3.41,2.66,7.07,2.93c3.66,.27,4.16-.18,4.16-.18,0,0,.75-.64-.1-2.42-.86-1.78-2.62-6.3-2.62-6.3,0,0,7.18-1.17,8.3,2.77l1.11,1.34s-.44,1.68,.18,3.18c.62,1.5,2.02,6.42,2.02,6.42,0,0,.85,1.61,.33,2.5-.53,.89-2.17,1.09-2.17,1.09l-5.35-.29s-5.29-.94-6.35-1.41c-1.06-.47-1.8-.49-1.8-.49l-1.16,.31-3.62-9.45Z"/>
    </g>
  </g>
  <g>
    <path d="M88.44,29.9c0-2.38-.71-4.33-2.14-5.84-1.44-1.57-3.35-2.35-5.72-2.35-2.18,0-3.26,.29-3.26,.87,0,.83-.01,2.08-.04,3.76-.03,1.67-.04,2.92-.04,3.76s.01,2.05,.04,3.69c.03,1.64,.04,2.88,.04,3.72,0,.61,1.13,.91,3.39,.91,2.44,0,4.37-.81,5.76-2.43,1.31-1.54,1.97-3.56,1.97-6.08m8.12,0c0,4.15-1.34,7.75-4.01,10.8-2.36,2.72-5.67,4.16-9.94,4.3-.82,.03-3.07,.04-6.76,.04-.69,0-1.73-.02-3.12-.06-1.39-.04-2.43-.06-3.13-.06-.41,0-.61-.16-.61-.49,0-1.55,.06-3.88,.18-7,.12-3.11,.18-5.44,.18-7s-.06-4.05-.18-7.29c-.12-3.24-.18-5.66-.18-7.27,0-.3,.21-.47,.61-.53,1-.11,2.65-.17,4.94-.17,4.35,0,7.17,.06,8.46,.19,3.35,.34,5.97,1.19,7.86,2.54,1.78,1.27,3.19,3.05,4.22,5.33,.99,2.16,1.48,4.38,1.48,6.67"/>
    <path d="M114.82,34.49c0-1.11-.35-2.1-1.04-2.95-.69-.85-1.59-1.28-2.69-1.28s-2.03,.44-2.76,1.31c-.68,.82-1.02,1.79-1.02,2.92s.34,2.12,1.02,2.94c.72,.88,1.64,1.31,2.76,1.31s2.01-.44,2.73-1.31c.66-.82,1-1.8,1-2.94m6.95,0c0,3.22-.99,5.83-2.96,7.83-1.97,2-4.56,3.01-7.77,3.01s-5.67-.99-7.67-2.96c-2.01-1.97-3.01-4.51-3.01-7.62,0-3.27,.96-5.93,2.88-7.97,1.92-2.04,4.52-3.06,7.8-3.06s5.78,1,7.76,2.99c1.98,2,2.97,4.59,2.97,7.78"/>
    <path d="M140.06,30.97s-.44-.11-1.28-.34c-.84-.23-1.52-.34-2.04-.34-1.26,0-2.26,.38-3.01,1.13-.75,.76-1.12,1.76-1.12,3.02s.41,2.32,1.23,3.06c.82,.74,1.89,1.11,3.2,1.11,.62,0,1.32-.16,2.1-.48,.78-.32,1.14-.48,1.1-.48,.24,0,.55,.9,.93,2.69,.32,1.64,.49,2.72,.49,3.26s-.88,.99-2.63,1.38c-1.36,.3-2.45,.44-3.29,.44-3.11,0-5.67-1.04-7.69-3.13-2.02-2.09-3.03-4.69-3.03-7.81s1.01-5.69,3.04-7.8c2.03-2.11,4.59-3.17,7.68-3.17,2.1,0,3.96,.45,5.55,1.36,.37,.2,.55,.39,.55,.57s-.21,1.02-.64,2.5c-.4,1.42-.65,2.29-.77,2.58-.12,.3-.24,.44-.37,.44"/>
  </g>
</svg>